<?xml version="1.0" encoding="utf-8"?>
<!-- Generator: Adobe Illustrator 22.1.0, SVG Export Plug-In . SVG Version: 6.00 Build 0)  -->
<svg version="1.1" id="Layer_1" xmlns="http://www.w3.org/2000/svg" xmlns:xlink="http://www.w3.org/1999/xlink" x="0px" y="0px"
	 viewBox="0 0 595.3 841.9" style="enable-background:new 0 0 595.3 841.9;" xml:space="preserve">
<style type="text/css">
	.st0{fill:#8B0029;}
	.st1{fill:#D6CABC;}
</style>
<g>
	<polygon class="st0" points="129.1,506.6 129,572.5 140.3,572.5 140.3,506.6 139.6,506.6 129.1,506.6 	"/>
	<path class="st0" d="M522.7,538.6c-0.1,0-8.8-4.3-8.8-4.3l-7.5-3.7c-5.5-2.9-8.3-6.1-8.3-9.4c0-2.8,1.2-4.9,3.8-6.3
		c2-1.1,4.8-1.7,8.3-1.6c5.7,0.2,11.6,1.9,14.7,4.3l1.2,0.9v-11.6l-0.5-0.2c-4.6-1.5-9.6-2.2-14.8-2.2c-6.8,0-12.6,1.3-17.1,4
		c-5.4,3.1-8.2,7.7-8.2,13.7c0,6.1,3.1,11.2,9.1,15c0.1,0.1,3.3,1.6,3.3,1.6l13.1,6.4c5.5,2.9,8.3,6.3,8.3,10.1c0,2.8-1.5,5.2-4.5,7
		c-2.7,1.6-5.7,2.4-8.7,2.4c-7.1-0.1-13.7-1.8-19.7-5.3l-1.3-0.8l-0.2,10.7l2.3,0.9c5.3,2,11.3,3,17.8,3c8.1,0,15-2.1,19.9-6
		c4.7-3.8,7-8.8,7-14.9C531.8,547,528.8,542.4,522.7,538.6L522.7,538.6z"/>
	<path class="st0" d="M334.8,557.4c0,0-10.9-13.6-13.6-17c2.3-0.8,6.2-2.6,9.2-5.7c3.3-3.4,4.9-7.3,4.9-11.6c0-4.8-1.8-8.8-5.4-11.8
		c-3.7-3.1-8.9-4.7-15.4-4.7h-21.1h-0.7v65.6h11.7v-1c-0.3-2.2-0.3-5.4-0.3-13.4c0,0,0-41.7,0-43.1c10.7-0.1,15,1.3,16.7,2.4
		c2.2,1.6,3.3,3.9,3.3,7c0,7.3-5.3,11.6-16.2,13.2l-1.2,0.2l23,29.7c2.7,3.4,6.7,5.2,11.9,5.2h9.4l-1.9-1.3
		C344.2,568,339.1,562.8,334.8,557.4L334.8,557.4z"/>
	<path class="st0" d="M241.8,541.2c1.4,0,21,0,21,0v-8.6c0,0-19.7,0-21,0c0-1.3,0-15.8,0-17c4.6-0.1,25.8,0,26,0l0.8,0v-8.8l-38.1,0
		v0.7l0,65h42.2l0-9.2c0,0-29.4,0-30.8,0C241.8,562,241.8,542.5,241.8,541.2L241.8,541.2z"/>
	<path class="st0" d="M206,539.7c-2.5-2.6-5.8-4.4-9.9-5.5c5.7-3,8.6-7.2,8.6-12.5c0-4.6-1.9-8.3-5.7-10.9
		c-3.7-2.6-8.9-3.9-15.4-3.9h-19.5v65.7h12.5c5.5,0,9.1-0.1,11.2-0.3c4.2-0.4,7.9-1.3,11-2.8c3.5-1.7,6.4-4.1,8.7-7.3
		c2.3-3.2,3.5-6.7,3.5-10.5C210.9,546.9,209.3,542.9,206,539.7z M175.4,515c0.3,0,5.5,0.1,5.5,0.1c3.6-0.1,6.4,0.3,8.5,1.9
		c1.8,1.3,2.8,3.2,2.8,6.2c0,2.6-0.6,5.7-4,7.4c-2.6,1.3-6.5,1.6-10.3,1.6c0,0-2.2,0-2.5,0C175.4,531.9,175.4,515.2,175.4,515z
		 M193.9,561c-2.8,1.9-5.8,2.4-10.6,2.2c0,0-7.1,0-7.9,0c0-0.3,0-22.6,0-22.9c0.3,0,6.2,0,6.2,0c4.5-0.2,8.7,0.6,12,2.6
		c3.6,2.3,5.2,5.7,5.1,9.1C198.5,556.2,196.2,559.4,193.9,561z"/>
	<path class="st0" d="M352.4,506.6v0.7l0,7.9c0,0,17,0,18.4,0c0,1.4,0,57.2,0,57.2h11.3c0,0,0-55.8,0-57.2c1.3,0,18.7,0,18.7,0v-8.7
		L352.4,506.6L352.4,506.6z"/>
	<polygon class="st0" points="67.4,506.6 67.4,572.5 109.7,572.5 109.7,563.3 78.8,563.3 78.8,506.6 	"/>
	<g>
		<path class="st0" d="M444.2,506.5h-10.5l-26.8,66h10.1c0,0,8.7-23.5,9-24.4c0.9,0,22.7,0,23.6,0c0.3,0.9,9.2,24.4,9.2,24.4h12.6
			l-26.8-66H444.2 M446.1,539.4c-1.8,0-15.1,0-16.9,0c0.7-1.7,7.4-18.7,8.5-21.6C438.9,520.7,445.4,537.7,446.1,539.4L446.1,539.4z"
			/>
	</g>
</g>
<g>
	<polygon class="st0" points="293.2,737.4 293.1,803.2 304.5,803.2 304.5,737.4 303.8,737.4 293.2,737.4 	"/>
	<path class="st0" d="M518.8,769.7c-0.1,0-8.8-4.3-8.8-4.3l-7.5-3.7c-5.5-2.9-8.3-6.1-8.3-9.4c0-2.8,1.2-4.9,3.9-6.3
		c2-1.2,4.8-1.7,8.3-1.6c5.7,0.1,11.6,1.9,14.7,4.3l1.2,0.9v-11.6l-0.5-0.2c-4.6-1.5-9.6-2.2-14.8-2.2c-6.8,0-12.6,1.3-17.1,4
		c-5.4,3.1-8.2,7.7-8.2,13.7c0,6.1,3,11.2,9.1,15c0.1,0.1,3.2,1.7,3.2,1.7l13.1,6.4c5.5,2.9,8.3,6.3,8.3,10.1c0,2.9-1.5,5.2-4.6,7
		c-2.7,1.6-5.6,2.4-8.7,2.4c-7.1-0.1-13.7-1.8-19.7-5.3l-1.3-0.8l-0.2,10.7l2.3,0.9c5.3,2,11.3,3,17.7,3c8.1,0,15-2.1,19.9-6
		c4.7-3.8,7-8.8,7-14.9C527.9,778.1,524.8,773.5,518.8,769.7L518.8,769.7z"/>
	<path class="st0" d="M260.9,788.2c0,0-10.9-13.6-13.6-17c2.3-0.8,6.2-2.6,9.2-5.7c3.3-3.4,5-7.4,5-11.6c0-4.8-1.8-8.8-5.4-11.8
		c-3.7-3.1-8.9-4.7-15.4-4.7h-21.1h-0.7V803h11.7v-1c-0.3-2.2-0.3-5.4-0.3-13.4c0,0,0-41.7,0-43.1c10.7-0.1,15,1.2,16.6,2.4
		c2.2,1.6,3.3,3.9,3.3,7c0,7.3-5.3,11.6-16.2,13.2l-1.2,0.2l23,29.7c2.7,3.4,6.7,5.2,11.9,5.2h9.4l-1.9-1.3
		C270.3,798.7,265.1,793.5,260.9,788.2L260.9,788.2z"/>
	<path class="st0" d="M330.3,737.4v0.7l-0.1,7.9c0,0,17,0,18.4,0c0,1.4,0,57.2,0,57.2H360c0,0,0-55.8,0-57.2c1.4,0,18.7,0,18.7,0
		v-8.7H330.3L330.3,737.4z"/>
	<g>
		<path class="st0" d="M110.3,737.2c0,0-17.6,48.2-18.9,51.7c-1.3-3.5-18.5-51.7-18.5-51.7h-13l24.6,66h10.3l25.5-66h-1.1H110.3z"/>
	</g>
	<g>
		<path class="st0" d="M159,771.9c1.4,0,21.1,0,21.1,0v-8.6c0,0-19.7,0-21.1,0c0-1.3,0-15.8,0-17.1c4.6-0.1,25.8,0,26,0l0.7,0v-8.8
			l-38.1,0v0.8l0,65h42.2l0-9.2c0,0-29.4,0-30.8,0C159,792.7,159,773.2,159,771.9L159,771.9z"/>
	</g>
	<g>
		<path class="st0" d="M430.8,737.6h-10.5l-26.8,66h10.1c0,0,8.7-23.5,9-24.4c0.9,0,22.7,0,23.6,0c0.3,0.9,9.2,24.4,9.2,24.4H458
			l-26.8-66H430.8 M432.7,770.5c-1.8,0-15,0-16.8,0c0.6-1.7,7.4-18.7,8.5-21.6C425.4,751.8,432,768.8,432.7,770.5L432.7,770.5z"/>
	</g>
</g>
<rect x="56.7" y="479.1" class="st0" width="481.9" height="5.8"/>
<rect x="56.7" y="594.3" class="st0" width="481.9" height="5.8"/>
<rect x="56.7" y="709.4" class="st0" width="481.9" height="5.8"/>
<rect x="56.7" y="824.6" class="st0" width="481.9" height="5.8"/>
<g>
	<path class="st0" d="M451.9,232.2V9.6h-5.3H146v222.7c0,3.3-0.2,81.5,55.5,127.9l-0.1-0.1c1.8,1.6,43.4,38.1,95.2,60.4l1,0.4h2.8
		l1.1-0.5c49.9-23.1,95.3-59.8,95.8-60.2C453,313.8,452,235.5,451.9,232.2z"/>
	<g>
		<polygon class="st1" points="157.2,20.9 157.2,23.1 441.4,23.1 441.4,20.9 157.2,20.9 		"/>
		<polygon class="st1" points="157.2,81.8 157.2,83.9 441.4,83.9 441.4,81.8 157.2,81.8 		"/>
		<polygon class="st1" points="156.6,118.1 156.6,120.3 440.7,120.3 440.7,118.1 156.6,118.1 		"/>
		<path class="st1" d="M210.2,72.5c-1.5-1.2-3-2.2-6.1-5.5c0,0-13.1-14.5-15.1-16.8c0.5-0.6,15.3-18.7,15.3-18.7l0.9-0.9H204h-6.3
			l-16.6,20.5V30.6h-0.5h-7V74h7.5V51.8l17.3,19.3c1.4,1.9,4,2.9,7.6,2.9h6.2l-1.5-1.1L210.2,72.5L210.2,72.5z"/>
		<path class="st1" d="M245.7,29.3c-6.6,0-12.3,2.2-16.9,6.6c-4.6,4.4-6.9,9.8-6.9,16.1c0,6.6,2.3,12.2,6.9,16.5
			c4.4,4.3,9.9,6.4,16.3,6.4c6.4,0,12-2.2,16.5-6.6c4.5-4.4,6.9-10,6.9-16.6c0-6.1-2.1-11.3-6.4-15.6
			C257.7,31.7,252.2,29.4,245.7,29.3 M245.4,69.3c-4.5,0-8.3-1.9-11.3-5.6c-2.8-3.5-4.2-7.6-4.2-12.2c0-4.8,1.4-8.8,4.2-11.9
			c2.8-3.1,6.5-4.6,11.2-4.6c4.5,0,8.3,1.9,11.2,5.6c2.7,3.4,4,7.6,4,12.5c0,4.7-1.4,8.6-4.1,11.7C253.6,67.8,249.9,69.3,245.4,69.3
			L245.4,69.3z"/>
		<path class="st1" d="M350.5,53.2c0.9,0,13.9,0,13.9,0v-5.7c0,0-13,0-13.9,0c0-0.8,0-10.4,0-11.2c3-0.1,17,0,17.2,0h0.5v-5.8
			l-25.2,0V31l0,43h27.8l0.1-6.1c0,0-19.5,0-20.4,0C350.5,67,350.5,54.1,350.5,53.2L350.5,53.2z"/>
		<path class="st1" d="M411.1,30.5h-7L386.5,74h6.7c0,0,5.8-15.3,6-15.9c0.6,0,15,0,15.7,0c0.2,0.6,6.1,15.9,6.1,15.9h8.3
			l-17.7-43.5H411.1 M412.4,52.3c-1.2,0-10,0-11.1,0c0.4-1.1,4.9-12.4,5.6-14.3C407.6,39.9,411.9,51.2,412.4,52.3L412.4,52.3z"/>
		<path class="st1" d="M316.8,64.1c0,0-7.2-9-9-11.3c1.5-0.5,4.1-1.7,6.1-3.8c2.2-2.3,3.3-4.9,3.3-7.7c0-3.2-1.2-5.8-3.6-7.8
			c-2.5-2-5.9-3.1-10.2-3.1h-13.9h-0.5V74h7.7v-0.7c-0.2-1.5-0.2-3.7-0.2-8.9c0,0,0-27.6,0-28.5c7.1-0.1,9.9,0.8,11,1.6
			c1.5,1.1,2.2,2.6,2.2,4.7c0,4.8-3.5,7.7-10.7,8.7l-0.8,0.1l15.2,19.5c1.8,2.3,4.4,3.4,7.9,3.4h6.2l-1.3-0.9
			C323,71,319.6,67.7,316.8,64.1L316.8,64.1z"/>
		<path class="st1" d="M289.5,102.3c0.4,0,6.7,0,6.7,0v-2.7c0,0-6.2,0-6.7,0c0-0.4,0-5,0-5.4c1.4,0,8.1,0,8.2,0h0.2v-2.8l-12,0v0.2
			l0,20.5h13.2l0.1-2.9c0,0-9.3,0-9.7,0C289.5,108.8,289.5,102.7,289.5,102.3L289.5,102.3z"/>
		<path class="st1" d="M190.6,91.4h-2.5l0,12.8c0,3.8-0.9,5.9-5.6,5.9H182c-3.1,0-4.7-2-4.7-5.9c0,0,0-12.8,0-12.8h-3.6l0,12.8
			c0,1.5,0.1,2.6,0.2,3.2c0.2,1.2,0.7,2.2,1.4,3c1.4,1.5,3.3,2.2,5.8,2.2h2.3c2.5,0,4.4-0.8,5.8-2.2c0.7-0.8,1.2-1.8,1.4-3
			c0.1-0.6,0.2-1.7,0.2-3.2V91.4H190.6L190.6,91.4z"/>
		<path class="st1" d="M221.8,91.4l0,0.2c0,0,0,13.8,0,15c-0.8-1-12-15.2-12-15.2h-3.1v20.7h2.7c0,0,0-14.3,0-15.5
			c0.8,1,12.1,15.5,12.1,15.5l3,0V91.4h-0.3H221.8L221.8,91.4z"/>
		<polygon class="st1" points="239.8,91.4 239.8,112.2 243.4,112.2 243.4,91.4 243.2,91.4 239.8,91.4 		"/>
		<polyline class="st1" points="369.5,112.2 373.1,112.2 373.1,107.6 373.1,96 373.1,91.7 373.1,91.4 372.8,91.4 369.5,91.4 
			369.5,91.4 369.5,96 369.5,107.6 369.5,112.2 		"/>
		<path class="st1" d="M271,91.4c0,0-5.5,15.2-5.9,16.3c-0.4-1.1-5.8-16.3-5.8-16.3h-4.1l7.7,20.8h3.2l8-20.8h-0.3H271L271,91.4z"/>
		<path class="st1" d="M352,101.7c0,0-2.8-1.4-2.8-1.4l-2.4-1.2c-1.7-0.9-2.6-1.9-2.6-3c0-0.9,0.4-1.5,1.2-2
			c0.6-0.4,1.5-0.5,2.6-0.5c1.8,0.1,3.7,0.6,4.6,1.3l0.4,0.3v-3.7l-0.1-0.1c-1.5-0.4-3-0.7-4.7-0.7c-2.2,0-4,0.4-5.4,1.3
			c-1.7,1-2.6,2.4-2.6,4.3c0,1.9,1,3.5,2.9,4.7c0,0,1,0.5,1,0.5l4.1,2c1.7,0.9,2.6,2,2.6,3.2c0,0.9-0.5,1.6-1.4,2.2
			c-0.9,0.5-1.8,0.8-2.7,0.8c-2.2,0-4.3-0.6-6.2-1.7l-0.4-0.2l0.5,3.6l0.1,0c1.7,0.6,3.6,1,5.6,1c2.5,0,4.7-0.7,6.3-1.9
			c1.5-1.2,2.2-2.8,2.2-4.7C354.8,104.3,353.9,102.9,352,101.7L352,101.7z"/>
		<path class="st1" d="M386.7,91.3v0.2l0,2.5c0,0,5.4,0,5.8,0c0,0.4,0,18,0,18h3.6c0,0,0-17.6,0-18c0.4,0,5.9,0,5.9,0v-2.7H386.7
			L386.7,91.3z"/>
		<path class="st1" d="M425.3,91.4c0,0-5.3,8.2-5.6,8.7c-0.4-0.6-5.6-8.8-5.6-8.8H414h-4c0,0,7.4,11.6,7.5,11.7c0,0.1,0,9,0,9h3.6
			c0,0,0-8.9,0-9c0.1-0.1,7.8-11.7,7.8-11.7H425.3L425.3,91.4z"/>
		<path class="st1" d="M326.1,107.4c0,0-3.4-4.3-4.3-5.4c0.7-0.3,2-0.8,2.9-1.8c1-1.1,1.6-2.3,1.6-3.7c0-1.5-0.6-2.8-1.7-3.7
			c-1.2-1-2.8-1.5-4.9-1.5H313h-0.2v20.7h3.7v-0.3c-0.1-0.7-0.1-1.7-0.1-4.2c0,0,0-13.1,0-13.6c3.4,0,4.7,0.4,5.2,0.8
			c0.7,0.5,1.1,1.2,1.1,2.2c0,2.3-1.7,3.7-5.1,4.2l-0.4,0l7.3,9.3c0.9,1.1,2.1,1.6,3.7,1.6h3l-0.6-0.4
			C329,110.7,327.4,109.1,326.1,107.4L326.1,107.4z"/>
	</g>
	<g>
		<path class="st1" d="M441.3,232.3c0,0.1,0,0.2,0,0.5c0,6.6-1.2,77.9-50.8,119.3c-0.4,0.3-43.7,35.2-91.6,57.9
			c-49.3-21.7-90.1-57.4-90.5-57.8l-0.1-0.1c-51.1-42.5-51.7-116.9-51.7-119.6c0,0,0-49.4,0-100.6h284.7
			C441.3,183,441.3,232.3,441.3,232.3z"/>
	</g>
	<g>
		<path class="st0" d="M275,374.3h3.9c0.5,0,0.3-0.5,0.3-0.5c-1.6-7-0.8-12.5-0.5-14.2c0,0,0.1-0.5-0.4-0.5h-3.9
			c-0.5,0-0.3,0.4-0.3,0.4c1.3,5.4,0.8,12.2,0.5,14.2C274.6,373.8,274.4,374.3,275,374.3L275,374.3z"/>
		<path class="st0" d="M289.5,358.7c-6.2,0.6-5.8,7.9-5.8,7.9c0.4,6.6,7.2,7.8,7.2,7.8c-1.9,5.1-6.9,6.6-6.9,6.6
			c-1.2,0.5-0.3,0.8-0.3,0.8c1.5,0.5,3.7-0.4,3.7-0.4c9.1-4.1,9.4-13.7,9.4-13.7C296.9,358,289.5,358.7,289.5,358.7 M291.7,372.1
			c-3,0.1-3.7-4.6-3.7-4.6c-0.8-5.1,1.2-5.4,1.2-5.4c2.1-0.7,3,3.7,3,3.7C293.2,370.9,291.7,372.1,291.7,372.1L291.7,372.1z"/>
		<path class="st0" d="M312.5,364.6c0,0-0.8-6.1-6.5-6c0,0-5.6-0.1-5.9,7.6c0,0-0.2,8.2,6.9,7.9C307,374.1,314,373.7,312.5,364.6
			 M307.1,371.5c-2.7,1-3-4.5-3-4.5c-0.3-5.2,1.8-5.8,1.8-5.8c2.2-0.5,2.8,3.3,2.8,3.3C309.7,370.5,307.1,371.5,307.1,371.5
			L307.1,371.5z"/>
		<path class="st0" d="M314.2,376.2c6,1.2,7.6-3.1,7.6-3.1c1.9-6-5.6-6.3-5.6-6.3l1.2-7.8c0,0,7.6,0.4,9.6-0.6c0,0,0.5-0.3,0.2,0.8
			c0,0-0.4,2.6-2.9,2.8l-3.7,0.3l-0.3,2.2c0,0,6.4-0.1,6.3,6.8c0,0-0.2,5.4-6.5,6.7c0,0-3,0.6-6.3-0.7c0,0-0.5-0.3-0.2-0.7
			C313.4,376.6,313.7,376.1,314.2,376.2L314.2,376.2z"/>
		<path class="st0" d="M292.1,230.9c0.5-0.6,1.1-0.2,1.6,0c0.5,0.1,0.5,1.1,0.8,1.6c0.2,0.3,1.1,1.3,1.2,1.6c0.8,3.5,0,8.1-1.6,10.7
			c-0.4,0.8-1.2,1.2-1.7,1.3c-0.7,0.1-0.9-0.9-1.1-1.3c-1-1.4-0.2-4.7,0-6.3c0.3-2-1.3-5.3-0.3-6.7L292.1,230.9L292.1,230.9z"/>
		<path class="st0" d="M244.6,234.6c0.8-0.3,2.1,0.2,2.6,0l1.1-0.5c1.3-0.8,2.6-0.6,4-0.5c0.7,0.1,2.7,0.9,3.3,1
			c1.1,0.1,6,0.7,11.4,1.4c-0.1,0,2.8-0.4,2.1-1.2c0.5,0.5-0.1-0.4-1.2-0.8l-0.4-0.4c0,0-0.9-0.8,0.8-1.4c-0.7,0.2,1.1-0.3,1.5-0.6
			c0.7-0.7-0.3-1.5-0.3-1.5c-2.5-0.8-5.3,0.8-9.1,0.4c-1.9-0.2-4.5-1.2-7.1-0.8c-2.9,0.5-7,2.1-9,3.7
			C244.2,233.3,243.3,235,244.6,234.6L244.6,234.6z"/>
		<path class="st0" d="M276.4,214c2.6-0.2,2.7,2.5,2.7,2.2c-0.3,1.9-5,2.1-6.1,3.6c-3.3,4.2-1.9,8.3-9.6,8.7c0,0-1.5-0.4-1-1
			c0.5-0.5,2.3-1,3-1.4c1-0.6,0.9-2.2,1.6-3.2c0.1-0.2,1-0.5,1.2-0.8c2.2-2.9,2.4-5.9,6.2-7.6C274.7,214.4,276.1,214,276.4,214
			L276.4,214z"/>
		<path class="st0" d="M301,202.6c0.9-0.5,1.7,0,2.3,0.5c0.3,0.2,3.1,7,3.3,7.7c0.4,2.5,0.6,8.1,0,9.9c-0.9,2.5-3.3,4.5-2.8,9
			c0.3,2.6,1.4,4.7,2.6,7c0.1,0.4,1.3,2.6,1.4,3.1c0.4,2.4-0.9,5.5-1.1,7.5c-0.6,4.9,1.4,9.3,0.6,13.9c-0.3,2-1,3-2.1,4.3l-0.9,0.7
			c-0.2,0.5-0.7,0.6-1.1,1l-0.5,0.5c-0.8,0.2-0.9,0.7-1.2,0.7c-2.1,0.5-2.5-0.8-2.4-0.5c-2.1-6,1.4-12.9-0.4-18.7
			c-0.4-1.3-2-2.6-2.2-4.1c-0.7-5.2,4.1-7.9,4-11.3c0-2.5-3.2-5.7-4-8.1c-0.9-2.9-1.5-8.3-0.3-11.9c0.3-0.9,1.4-2.3,1.7-3.5
			c0.6-2.2,1.5-4.1,1.8-5.5c0.1-0.5,0.4-1.1,0.6-1.5C300.4,203.2,300.9,202.7,301,202.6L301,202.6z"/>
		<path class="st0" d="M362.6,190.3c3.5-0.4,5.1,1,3.4,3.9l-0.7,0.6c-0.3,0.1-1.2,1.3-1.4,1.5c-1.7,1.2-3.3,2-4.6,3.6
			c-0.4,0.5-0.8,1.9-1.3,2.3c-0.9,0.6-4.2,2.1-5.1,2.2c-4.2,0.7-10-3.5-10.6-6c-0.5-2.1,0-4.1,0.9-4.6c1.4-0.7,5.2-0.4,6.5-0.5
			c3.3-0.2,5.3-0.1,7.8-0.9C359,192,360.8,190.5,362.6,190.3L362.6,190.3z"/>
		<path class="st0" d="M344.6,188.9c0,0,2,0.8,3.7,0.4c1.3-0.3,3.6-1.4,4.7-1.6c0.7-0.2,1.7,0.2,2.4,0c1.9-0.6,5.5-4.4,1.2-4.8
			c-1.5-0.1-6.1,1.6-7.6,2c-1.4,0.4-2.3,0.6-3.5,1.2c-0.3,0.2-2,1.5-1.8,1.3C343.9,187.4,342.8,188.3,344.6,188.9L344.6,188.9z"/>
		<path class="st0" d="M314.3,196c-1.3-0.2-1.3-2.3-4.4-1.6c-2.2,0.5-2.8,3.7-6,3.6l-1.6-0.8c-1.4-0.3-2.4,0.1-3.6-0.5
			c-5.6-2.6,4.3-16,7.5-15.8c0.2,0,1.8,0.6,2,0.8c1,0.9,1,4.6,1.9,6c0.7,0.9,1.8,0.9,2.8,1.6c1,0.8,2.9,3.4,3.1,4.8
			C316.2,194,316.7,196.3,314.3,196L314.3,196z"/>
		<path class="st0" d="M365.8,304.2C365.9,304.1,365.9,304.1,365.8,304.2L365.8,304.2z"/>
		<path class="st0" d="M410.3,186.4C410.3,186.4,410.3,186.4,410.3,186.4L410.3,186.4z"/>
		<path class="st0" d="M365.8,304.2L365.8,304.2L365.8,304.2C365.8,304.2,365.8,304.2,365.8,304.2L365.8,304.2z"/>
		<path class="st0" d="M410.3,186.4C410.3,186.4,410.3,186.5,410.3,186.4L410.3,186.4C410.3,186.5,410.3,186.4,410.3,186.4
			L410.3,186.4z"/>
		<path class="st0" d="M360.3,182.7c0-0.1,0.1-0.1,0.1-0.2C360.3,182.7,360.2,182.7,360.3,182.7L360.3,182.7z"/>
		<path class="st0" d="M336.2,250.3C336.2,250.3,336.1,250.3,336.2,250.3C336.2,250.3,336.2,250.3,336.2,250.3L336.2,250.3z"/>
		<path class="st0" d="M290.2,197c-2.2,1.2-6.9,3.1-7.9,5.2c-0.6,1.1-0.6,2.1-1,3.4c-0.1,0.1-0.6,0.4-0.8,0.8
			c-2.3,0-4.3-0.1-6.3,0.4c-1.6,0.4-3.8,2.1-5.5,2.4c-3.5,0.6-6.2-1-9.5-0.4c-1.5,0.3-2.4,1.8-3.6,2.4c-1,0.5-1.5,0.5-2.3,1.2
			l-0.7,0.8c-0.1,0.3-0.5,1.1-0.7,1.5c-0.7,1.1-1,2.2-1.2,3.3c-0.2,1.1-0.8,3.8-1.4,4.9c-0.3,0.5-1.8,1.8-2,2.3
			c-0.1,0.3-0.4,0.7,0,1.2c-0.5-0.6-0.4,0.5,2.4,0.7c3.1,0.1,10-2,10-2l3.3-1.8c0.6-0.5,3.2-2.4,3.7-3.1c2.4-3,8.8-13.8,13.8-10.9
			l0.9,0.6c1.2,2-0.3,7.7-1.2,9l-1.1,1.3c-0.9,0.3-1.5,2.6-1.6,3.7c-0.2,1.7,0.3,3.2,0.4,4.2c0.3,2.1,0.5,4.6-0.8,7.2
			c-0.3,0.5-1,1.4-0.8,2.7c0.2,1.6,2.4,2.7,2.8,4c0.2,0.6,0.8,0.7,0,2c-0.4,0.7-2.2,1.8-2.8,2.4c-0.7,0.7-0.1,1.9,0.4,2.3
			c1.4,1.2,2.5,1.4,3.6,2.8c1.5,1.9,1.4,3.6,4.8,4c2.6,0.2,6.3,0.4,4.8-3.2l-0.8-1.3c-0.9-2.3-2.6-4.4-2.8-7
			c-0.3-3.2,2.3-4.9,1.2-7.5c-0.9-2-4.8-1.8-5.2-4.4c-0.2-1.5,1.3-4.6,1.6-6c0.3-1.9-0.2-3.1,0.4-4.7c0.4-1.2,2.1-2.5,2.3-3.9
			c0.4-2.6-1.7-4.3-0.8-7.1c0.4-1.5,2.7-1.3,3.6-2.4c1.1-1.5,0.5-3.5,1.2-5.6c0.1-0.2,0.6-1.5,0.7-1.7c-0.1-0.1,0.5-2.7,0.5-2.7
			C291.3,196.4,290.3,197,290.2,197 M265.1,217.9c-2.2,0.5-2.4-4.2-7.8-2.4c-0.3,0.1-1.8,1.5-1.9,1.7c-0.6,1.4-0.3,5-1,5.4
			c0,0-2.1,0.5-1.7-2.1c0.6-4.2,1.4-5,3.6-6.7c0.3-0.2,1.1-0.8,1.5-0.9c2.5-0.6,7.2,0.4,8,1.7C266.5,215.6,265,217.9,265.1,217.9
			L265.1,217.9z"/>
		<path class="st0" d="M410.3,186.5c-0.4-1.9-5.6-1.8-7.8-4.4c-0.8-1-0.2-1.6,0-2.4c0.6-2.3,5.4-0.9,6.5-2.9
			c0.5-0.8,0.6-3.3,0.3-3.7c-3-3.7-9.4-1.9-13.9-3.7c-2.2-0.9-4.9-2.7-7.1-3.5c-2.9-1.1-5.1-1.2-7.9-2.4c-0.7-0.3-1.9-1.2-2.6-1.5
			c-3.2-1.3-5.7-1.5-8.9-2.9c-0.4-0.1-1.3-0.7-1.8-0.9c-1.3-0.5-1.7-0.6-3-1.1c-4.9-1.8-11.1-3.3-18.2-2.9c-3.1,0.2-6.7-0.4-11.5,1
			c-1.7,0.4-4,1.8-5.5,2.3c-1.1,0.3-2,0.5-3,0.9c-1.4,0.6-2.6,1.4-4.5,1.8c-5.5,1.2-12.7-0.1-18.2,0.8c-4.8,0.8-7.6,3.8-11.5,5.2
			c-1.2,0.4-1.7,0.3-2.9,0.7c-0.7,0.2-2.3,0.7-2.9,1c-1.6,0.8-2.7,1.1-4.6,1.9c-0.9,0.4-2,1.3-2.9,1.7c-1.3,0.7-1.4,0.8-2.5,1.6
			l-0.9,0.7c0,0-1.9,1.7-2.2,2c-0.8,0.8-1.5,1.9-2.2,2.8c-2,2.3-5,5.3-7.5,7.1c-0.9,0.7-1.6,0.5-2.4,1.2c-0.9,0.7-1.8,1.5-2.7,2.2
			c-2.1,1.5-4.2,2.5-6.4,3.7l-1.5,1c-1.9,1.3-1.9,1.8-3.9,3.1c-1.3,0.9-1.9,2.2-3.1,3.3c-0.8,0.6-1.7,2.5-2.2,3.4
			c-2.5,3.6-3.4,9-5.2,13.5c-0.5,1.3-4.9,7.5-5.9,7.9l-0.8,0.8c-0.6,0.5-0.6,0.7-1.2,1.2c-1.3,1.1-2.6,1.8-3.6,3.2
			c-0.8,1.1-1.3,2.3-2,3.5c-1.1,1.9-3,3.9-3.9,6c-0.4,0.8-0.7,1.5-0.9,2.2c-0.1,0.1-0.2,0.2-0.2,0.2c-0.5,0.6-1.3,3.2-1.3,3.2
			c-0.9,2-3,3.2-5.8,7.1c-3.2,0.2-14.4-2.6-22-6.2c1.7,1.9,10.2,7.6,20.2,8.7c-0.7,1-0.7,2-1.9,2.3c-4,1-10.9-1.2-20.2-4.4
			c0.5,1.3,8.7,6.1,20.8,6.8c-1.8,2.1-18.4,1.6-31.4-2c-0.5,1.4,16.3,5.1,25.5,5c-1.6,0.8-5.7,1.7-8.4,2.7c-4.2-0.5-10-1.2-11.2-1.6
			c0.3,0.8,4.4,2,7.8,2.8c-3.3,1.2-8.2,1.9-10.1,2.3c1.4,0.4,6.7-0.5,12.3-1.8c4.9,0.9,12.4,1.9,16.5,1.7c-1,0.5-4.9,3-8,4.8
			c-7.8,0.7-16.3,1.4-18.1,1.6c1,0.2,7.9,0.3,15.2,0.1c-4.5,2.6-9.2,5.3-11.5,6.4c3.4-0.9,9.4-3.2,15.6-6.5
			c6.1-0.2,11.9-0.7,14.3-1.6c-0.8,1.8-5.8,10.3-10.4,12.3c2-0.3,8.4-2.1,12.3-11.8c1.4,0.6,2.9,0.9,4.8,1c1,1.5,3.4,5.5,8,5.7
			c0.9,2.7,9.4,16.5,21.4,11.1c-3.5-1.9-5.5-3.8-7.2-9.3c5.3-0.3,19.3,7.3,23.5,24c-3.3-1.1-7.5-3-7.9-4.7c-0.9,3.8-1.5,8.8,7,17.3
			c0.2,1.8,0.1,4,0.5,6.1c1.4,1.5,3,2.6,4.5,3.8c0.1,2.4-0.2,5.7,6.1,7.6c2.1,1.8,9.1,3.7,10.1,4.9c2.1,0.7,5.1,0.8,7.4,0.7
			c0,0,3-0.5,3.8-1.7c1.5-0.1,3.5-0.1,12.7-9.9c1.9-2.3,0-15,0.5-18c0.9-2.2,1.3-4.3,2.5-7c0,0,1.2-2.7,3.6-3.8
			c0.2-0.1,0.3-0.1,0.5-0.1c5.3-1.2,12.2,3.7,15.4,5.1c1.2,0.5,1.8,0.2,2.8,0.8c0.5,0.3,1.1,1.3,1.6,1.6c1.2,0.7,2.3,0.5,3.6,1.2
			c1.9,1.1,5.8,6.6,9.1,6c1-0.3,1.9-2.6,2.8-3.2c1.6-0.9,3.8-0.9,5.2-1.9c1.6-1.3,0.9-2.7,1.2-4.4c0-0.1,0.7-0.9,0.8-1.2
			c0.8-0.1,2.5,0,3.6-0.4c0.1-0.1,0.6-0.6,0.8-0.8c0.7-0.7,0.2-1.5,0-2.1c-0.2-0.6-1.9-1.4-2.4-1.9c-1.2-1.2-3.2-2.9-4-4.3
			c-0.4-0.7,0.1-0.9-0.4-1.6c-0.5-0.8-1.9-1.7-2.3-2.7c-1.5-3.4-0.9-11-1.6-12c-0.6-1-1.4-0.9-2-1.8c-1.3-2.1,0.3-8.8,0.4-11.5
			c0.1-2.1-2-0.8-2-0.8c-1.7,4.3-1.5,6.2-2,12.3c-0.1,0.5-0.8,3.8-0.8,4.4c0,2.1,1.2,5.8,0.4,8.3c-0.3,0.8-2,2.4-4.4,2.4
			c-0.9,0-5.3-1.2-6.3-1.6c-0.2-0.1-1.1-1.2-1.2-1.2c-2.2-1.8-2.7-0.1-2.8,0.8c-0.1,0.9,0.3,1.1,0.5,1.6c0.1,0.5,1,2.4,0.9,2.6
			c0,0.2-0.8,2.3-4.9-0.2c-3.1-1.9-6.2-7.1-6.3-7.9c-0.4-2,0.2-3.5,0.6-4.2c1.5-1.4,3.4,0.5,4.9,1.4c0.4,0.2,1.4,0.9,1.8,1
			c0.9,0.2,2.4-0.2,2.6-0.2c6-0.4,12.2,1.8,13.3-2.2c0.7-2.5-1.8-3.9-2.3-5c-0.6-1.3-0.3-1.4-0.6-2.8c-0.1-0.1-0.5-1-0.6-1.1
			c-0.6-1.1-0.2-2-0.8-3.2c-0.6-1.3-2.4-2.1-3.2-3.2c-1-1.5-1-3.3-2.4-4.4c-2-1.7-10.1-4.1-11.1-6c-1.5-3,0.4-8.5-0.4-12.3
			c-0.4-2.2-1.1-3.4-2.5-4.8c-0.5-0.5-0.8-1.3-0.6-2c0.3-1.3,1-1,1.4-3.9c0.3-1.6-0.1-3.5,0-5.1c0-0.3,0.8-2.9,0.8-3.2
			c0.4-4.4-0.2-9.1-1.2-12.3c-0.5-1.6-1.9-2.9-2.4-4.4c-0.4-1.2,0.1-2-0.4-3.2c-0.4-1.1-1.8-1.8-2.3-2.7c-1.1-1.6-0.8-4.3-2.4-5.2
			c-1.2-0.7-1.6,0.3-1.6,0c-0.4,1.4-0.3,2.9,0.4,4.7c0.3,0.8,1.8,2,2,2.8c0.3,1.5-0.2,3.2,0,4.8l0.8,1.6c0.6,4-1.6,9.3-3.2,11.5
			c-1.1,1.5-4.5,3.4-4.7,5.5c-0.2,1.4,0.4,1.4,0.7,2c0.5,0.7,2.2,1.7,2.4,2.4c0.2,0.5,0.4,0.4,0.6,0.9l0.2,1.1
			c0.3,2.8-3.3,3.4-1.6,6.7c0.5,1,2.2,1,3.1,1.6c1.8,1.1,5.2,4.3,5.6,7.1c0.1,1.2,0,7.6-0.4,8.4c-0.8,1.8-5.3,2.4-4.8,6
			c0.6,3.8,10.6,2.7,13.4,4.7c1.4,0.9,1.6,3,2,4.8c0.2,1-0.8,1.3-1.2,1.5c-1.1,0.6-1.8,0.1-3.2,0.4c-3.3,0.7-8.5,2.1-9.9,4.8
			c-1.7,3,0.3,7.2-0.4,10.7c-0.7,3.2-3.1,7-4.8,9.5c-1.1,1.6-2.4,3.1-2.9,5.3c-1.2,4.7-0.3,10.2-0.7,15.7l-0.1,0.1
			c0,0,0.2,2.8-1.7,4.9c-2.2,2.4-9.7,9.5-15.1,9.5c-2-0.1-2.8-0.7-5-2.3c-1.4-0.1-4.5-0.9-6.3-2.8c-0.6-1-6.5-7-2.8-8.7
			c3.5-1.6,9.1,1.9,11.8,3.6c1.1,0,8.7,0.4,16.8-10.3c-0.4-5.6-0.8-12.7-1.5-14c-0.8-2.7-5.4-7.6-6.4-10.5c-0.6-2.3-1.7-7-1-10.1
			c-0.3-3.6-2.6-4.3-3.5-7.2c-0.3-0.7-0.6-1.3-0.7-1.5c-0.3-1-0.5-2-1.1-2.9c-1.4-2.1-2.8-2.6-4.1-4.7c-1.4-2.2-1.1-4.9-3.2-6.3
			c-1.1-0.8-2.7-0.8-4-1.6c-0.9-0.6-2.1-1.9-3.2-2.4c-1.3-0.6-1.6-0.7-2.9-1.3c-0.6-0.3-1.7-0.8-2.3-1.1c-0.6-0.3-1.1,0-1.6-0.4
			c-1.5-1.3-0.4-2.5-1.2-4.7c-0.1-0.3-0.7-0.3-0.8-0.8c-0.6-0.2-1.7-1.2-2.6-0.6c-1.2,0.9-1.5,0.6-2.3,2.4c-0.4,1.2-1.2,4.7-2,5.6
			c-0.7,0.9-1.6,2-2.7,2.8c-1,0.5-2,0.5-2,0.5l-3,0.4l-1.5,2.3c0,0-1.6-0.2-2.5-0.2c-0.2,0.5-2.2,2.1-2.8,2.6
			c-2.5,1.5-4.1,0.4-4.2-0.1c-0.1-0.5-0.9-1.5,0.8-2.5c5.8-1.6,12.9-9.4,13.5-11.1c-0.7,1.1-12.8,7.8-15,8.7c2.4-5.7,17.1-14,18-15
			c-3.8,0.6-16.3,8.2-18.5,11.5c-2.1,3.4-4.5,2.4-6.9,2.3c-2.2-0.1-2.1,2.3-2.2,3.8c0,1.4-1.2,4.4-0.2,4.9c1.5,1.3,5.6-4,6.9-1.2
			c0.7,3.2-7.6,3.1-7.6,5.7c-0.4,1.4,7.7,1.8,9.2,3.3c-2.6,1.9-9,2.5-10.9,2.6c-1.2,0.1-2.3,0-2.9,0c-1.1-0.2-2.4-1.1-3.6-3.1
			c-2.3-4.2,1.6-7.1,1.6-8.2c0.1-1.1-0.4-0.5-0.5-2.3c-0.1-1.8,1.9-2.1,2.4-2.4c0.6-0.4-0.1-0.9,0-2.6c1-3.9,7.3-8.3,5.7-9.5
			c-1.5-0.8-4.5,2.6-5.7,4.1c-4.3,5.6-9.4,3.8-11.1,3.9c-3.8,0.2-3.1-4-0.5-3.7c3.1-0.6,2.8-4.9,5-4.5c0.7,3.1-2.7,3.5-1.1,4.2
			c2.2,0.9,2.4-2,3.1-3.2c0.7-1.2,3.7-3.9,3.4-4.5c-0.9-0.3-3.2,1.3-4.2,2.1c-2.5-6.3,3.8-11,4.1-12.9c2.1-3.3,13.7-7.5,13.9-12.4
			l0.3-0.3c0,0,0.2-0.1,0.6,0.4h0c0.1,0.3,0.1,0.6,0.2,1c0,0.4,0,0.8,0,0.8l0.1-0.5c0.1,0.8,0.1,1.4,0.1,1.3v0.8
			c0.1,0.4,0.7,0.7,0.8,0.7c0.2,0,0.9-0.2,1.5-0.9c0.1-0.1,0.8-0.7,0.8-0.9c1.1-0.8,1.3-0.9,2.1-2c2-2.9-1.9-7.2-0.8-11.1
			c0.7-2.6,3.2-5.7,3.2-5.7c0.7-1.5-0.4-1.5-0.4-1.5c-1.5-0.3-2.6,1.4-2.4,1.2c-2,1.8-2.6,2.7-4,5.2c0,0-1.2,1.1-1.6-0.4
			c-0.7-2.5,2.1-7.3,3-7.9c1.6-1.1,3.3-1.6,5.3-2.4c1-0.4,2.6-2.1,3.6-2.4c0.5-0.2,1-0.3,1.6,0c0,0,0.8,0.6,0.4,2.4
			c0,0-0.8,2.2-0.5,2.9c0.2,0.5,0.1,1,1.3,1c2.9,0.1,9.2-0.6,11.1-1.6c0.4-0.2,0.8-0.8,1.2-1.2c0.6-0.6,0.4-1.5,0-1.6l-1.2-0.4
			c0.9-0.1-5.4-0.2-4.4-0.4c-1.1,0.2,1.5-2.9,1.2-4.4c-0.1-0.7-1.4-1-1.6-1.6c-0.1-0.4-0.8-0.9,0-1.2l0.9-0.4
			c0.3-0.2,0.6-0.6,1.1-0.8c2-0.9,5.6-0.5,7.1,0c0.2,0.1,2.7,0.8,3.6,3.2c0.2,0.7,0.4,1.4,0.8,2c1.2,1.6,4.7,2.2,6.7,0.3
			c0.4-0.4,0.9-1.3,1.2-1.8c2-4.7-1-7.9-4.8-9.2c-1.5-0.5-4-0.7-5.9-1.2c-1.4-0.4-0.5-1.5-0.2-1.9l0.6-0.5c0.7-1.1,3.1-2.1,4-2.4
			c2.1-0.8,4.2-1.6,7.1-0.4c0.4,0.1,1.6,1.1,1.9,1.2c2.3,0.6,3.1,0.7,5.2-0.4c0.8-0.4,0.7-0.5,0.8-0.8c0.7-2.1-0.7-3.5-0.7-3.3
			c-0.4-2.9,7.7,0.7,9-1.1c1.2-1.6,0.4-4.7,2-5.9c0.2-0.1,1.1-0.8,1.2-0.8c1.5-0.3,2.8,0.3,4.1,0.8l1.3,0.6c2.6,1.1,4.8,1.6,6.2,3.7
			c0.9,1.4,0.7,3.4,1.6,4.8c0.4,0.6,1.2,1,1.6,1.6c0.4,0.4,1.1,0.7,1.5,1c0.7,0.5,1,0.7,2,0.9c0.7,0.3,1.7,1.3,2.4,1.6
			c2.4,1,5.3,0.8,7.9,0.8c1.6-0.1,2.5,0.8,3.9,0.4c0.8-0.3,0.5-1.6,0.1-2.2c-0.9-1.2-1.7-0.9-3.2-1.8c-0.6-0.4-1.4-1.6-2-2
			c-1.8-1.2-4.4-1.3-5.5-3.2c-0.2-0.3-0.4-0.8-0.4-1.2l-0.5-0.8c-2.2-4.4-2.9-7.1-0.8-7.9c1.3-0.5,4.2-0.2,5.6-0.8
			c0.3-0.2,0.9-1.1,1.2-1.2c3.1-1.5,9.1-3.2,12.3-1.6c1,0.5,0,3,0.4,3.9c0.2,0.4,0.9,1.2,1.8,1.4c6.8,1.8,13.6,1.5,18.6,3.9
			c3,1.4,5.3,3.6,7.9,5.9c2.3,2.1-0.4,4.4,1.9,5.1c-1.6,0.2-3,0.4-3.3-0.5c-0.1-0.2-0.6-0.9-0.8-1.2c-1.8-1.7-3.9-4.3-6.3-5.1
			c-1.3-0.5-1.8-0.1-3.2-0.4l-1.6-0.5c-1.7-0.5-1.9-0.3-3.5-0.7c-0.8-0.1-2.5-1.1-3.2-1.2c-3.4-0.5-5.3,0.8-8.3,0
			c-1.4-0.4-3.2-2.7-4.4-3.3c-1.4-0.8-2.7-1.1-4.3-1.6c-0.6-0.2-1-0.2-1.5,0.1c-0.9,0.5-0.6,1.3-0.1,1.9c0.3,0.3,0.5,0.9,0.8,1.1
			c1.1,0.8,3.4,0.8,4,2c1.8,3.5-0.8,4.7-1.2,5.7c-0.2,0.6-0.7,1.1,0,2c0.4,0.4,1.2,1,1.6,1.2c1.6,0.7,2.9,0.4,4.4,1.2
			c1.1,0.6,2.2,2.5,3.6,2.8c3.2,0.7,3.9-1.7,5.5-2c2.3-0.5,3.7,0.7,6.3,0c0.9-0.2,1.4-1.3,2-1.6c1.5-0.8,3-0.9,4-0.4
			c0,0,1,0.5-0.4,1.2c-0.8,0.4-1.5,0.4-2.4,0.9c-0.6,0.3-1.1,1.1-1.2,1.2c-0.3,0.5-0.5,1.4-0.5,1.4c0.3,0.4,0.6,0.7,0.8,0.8
			c2.8,1,5.6-0.8,8-1.2c1.7-0.3,6.7,0,8.1,1.1c0,0,1.3,0.3,0.5,2.7c-0.5,1.4-2.8,2.5-3.6,3.7c-0.5,0.7-1,2-1.6,2.7
			c-0.8,1.1-1,1-1.8,2l-0.6,0.8c-0.3,1-4.4,4.4-5.1,5.6c-0.5,0.7-0.7,1.4-1.2,2.1c-0.7,1-1.2,1.2-1.6,1.8c-1.2,1.7-3.4,5.1-5.3,5.9
			c-0.8,0.4-2,0-3.2-0.3c-0.8-0.2-1.7-1.7-2.3-2c-2.8-1.3-5.9-0.9-8.3-2.4c-1.2-0.7-2.3-2.9-3.2-3.9c-0.6-0.8-1.1-2.1-2-2.4
			c-1.4-0.5-4.9,0-5.5,1.2c-1.3,2.5,2.1,8.9,2.4,11.5c0.2,2.2-0.8,3.3,0,5.1c0.4,1,1.9,1.2,2.3,2c2.2,3.4,0.3,8.2,0.8,12.7
			c0.2,1.4,1,3.2,0.8,5.2c-0.3,3.2-4.4,5.9-2.8,10.7c0.1,0.2,0.8,0.8,0.9,0.8c0.6,0.3,1.6,0.2,2.3,0c1.3-0.5,2.6-3.1,4-4
			c0.1-0.2,0.6-0.4,0.8-0.4c0.1-0.3,0.5-0.3,0.7-0.4c0.6-0.4,0.8-0.5,1.2-1.2c0.5-1.3,0.4-2.6,0.8-4.4c0.4-1.5,1.8-4.2,2-6
			c0.5-4.9-3-14.3-0.5-15.9c1-0.6,1.9-1.7,3.6-2c0.7-0.2,3.1,0.6,4.2,0.5c0,0,0,0,0,0c-1.3,3,3.5,11,3.1,15.3
			c-0.9,10.7-7.9,16.5-13.9,22.2c-0.7,0.7-0.1,1.4,0.4,2c1.2,1.1,4.1,0.6,5.6,0.4c2.2-0.5,3.1-1.4,4.7-2c0.6-0.2,1.3,0.1,2,0
			c1.6-0.4,3-2.7,4-4c0,0,1.9-2.1,2.3,0.7l0,0.1c0,2.6-0.4,5.4,0,7.9c0.5,3,5.9,11.9,8.7,12.3c6.6,1-0.2-7.3-0.4-7.9
			c-1.1-2.5-2.1-7-2-10.3c0-1.2,1-3.7,1.2-4.8c0.1-0.6-0.2-1.9,0-2.3c0.5-1.1,4-1.4,4.8-2.8c0.2-0.4-0.1-1.1,0-1.6
			c0.2-1,0.9-2.7,1.6-3.5c0.5-0.6,1.1-0.9,2,0c0.7,0.8,0.9,2.5,2,3.8l1,1.1c1.2,0.8,3.1-0.3,2.6-0.1c1.2-0.3,1.1-1.6,1.6-2
			c0.1-0.1,0.8-0.4,0.8-0.4c2.9-2.9-3.5-5.6-3.6-8.3c-0.1-3,0.7-6.5-0.4-9.9c-0.3-0.8-1.8-2-2-2.8c-0.4-1.9,0.6-3.9,0.8-5.1
			c0.5-2.5-0.4-6.4,0.4-7.5c0.5-0.6,1.2-1.1,2.8-0.8c1,0.2,1.7,1.8,2.4,2.4c2.6,2.1,5.6,3.3,9.9,2.8c0.5,0,1-0.8,1.1-1
			c0.3-0.8,0.2-1.8-0.3-2.5c-1.6-2.1-7.6-3.7-7.9-4.7c-0.2-0.8-1.2-1.8-0.1-2.3c-0.6,0.3,3.7-0.1,5.3-0.4c2-0.4,2.2-2.5,3.6-3.2
			c2-1,4.9-0.1,6-2c0.6-1.2,0.1-2.9,0.8-4c0.8-1.4,3.1-1.7,4.4-2.8C410.5,188.1,410.4,186.9,410.3,186.5 M251,279.2
			c-0.8-0.9-0.1-2.5,1.3-3.3c2.7-1.2,3.7,0.2,4.3,0.9c2.6,4,5.9,9.2,8.4,11.2C262.7,288.3,254.2,285.7,251,279.2 M272.8,319.3
			c-1.4,0-10.2-7.4-8.9-12c2.6,1.9,8.5,6,9.2,6C273.9,313.6,274.5,318.8,272.8,319.3 M283,319.3c-1.2-1-9.7-10-7.6-14.2
			c2.3,2.4,8.9,8.4,11.2,9C287.3,315.7,287.2,320.5,283,319.3 M283.9,284.8c1.5,2.2,3.6,3.6,3.4,8.4c-0.1,1.2,0.2,1.4,1.2,1.3
			c0.9-0.3,0.4-5.8,3.1-5.5c2.3,0.3,0.7,3.5,1.9,7.1c0.4,1.3,3,5.9,2.3,13.8c-0.1,2-3.9,4.7-6.1,3.1c-1.8-1.1-1.8-2.4-2.8-10.8
			c-0.4-4.9-6.4-6.6-9-8.8c-2.5-1.9-1.1-2.8-1.6-6.2c-1.5-4.9-7.2-7.2-5.3-10.5c0.6-0.8,1.2-1.6,3-0.9
			C274.2,278.2,280,280.1,283.9,284.8 M243.1,269.2C243,269.3,242.9,269.3,243.1,269.2C243.2,269.2,243.1,269.2,243.1,269.2
			c0.6-0.3,3.1-1.5,3.8-1.7c2.7-1,4.1,0.5,6.6-0.9c0.6-0.4,1.2-1.3,1.8-1.8c0.5-0.4,1.3-0.4,1.9-0.8c1.4-0.9,4-3.9,5.7-4.2
			c1-0.2,1,0.1,1.5,0.1c0,0.1,0.8-0.2,0.6,1.4c-0.5,2.9,6.4,0,11,1c3.1,0.7,6.1,1.8,5.3,3.8c0.1-0.2-0.9,0.6-1.1,0.8
			c-2.1,1.5-3.8-0.1-4.8-0.3c-1.9-0.2-3.2,0.3-5.1,0.1c0,0-2.3-0.8-2.3-0.8c-1.4-0.1-3.5,0.7-4.6,0.8c-2.1,0.2-3.1-0.6-5-0.4
			c-0.9,0.1-2.4,1.3-3,1.5c-0.6,0.2-1.3,0.4-1.9,0.6c-0.4,0.1-1.4,0.7-1.9,0.9c-1.9,0.9-3,0.9-5.4,1.5l-1.4,0.4
			C241.9,271.7,242.2,269.7,243.1,269.2 M236.1,280.6c3.1-0.7,4,0.1,5.5,3.6c1.1,2.1,3.4,4.9,4.3,6.2c-3.6,0.4-9.3-4.5-10.9-7.2
			C234,281.9,235.5,280.8,236.1,280.6 M196.3,265.7c4.1-1.2,7.7-2.3,9.3-3.2c0.5,0,1.1,0,1.6-0.1c0.2,1.1,0.7,2.2,1.3,3.3
			c0.1,0.2,0.3,0.4,0.4,0.6C206.5,266.4,201.4,266.1,196.3,265.7 M204.9,272.9c2.1-1.3,4.1-2.6,6-4c0.9,1,1.8,2,2.9,2.9
			C212.7,272,209.2,272.4,204.9,272.9L204.9,272.9z"/>
		<path class="st0" d="M243.1,269.2C243.1,269.2,243.2,269.2,243.1,269.2C242.9,269.3,243,269.3,243.1,269.2L243.1,269.2z"/>
	</g>
</g>
<g>
	<path class="st0" d="M508.8,621.6h-10.5l-26.8,66h10.1c0,0,8.7-23.5,9-24.4c0.9,0,22.7,0,23.6,0c0.3,0.9,9.2,24.4,9.2,24.4h12.6
		l-26.8-66H508.8 M510.7,654.5c-1.8,0-15.1,0-16.8,0c0.7-1.7,7.4-18.7,8.5-21.6C503.5,635.8,510.1,652.8,510.7,654.5L510.7,654.5z"
		/>
	<polygon class="st0" points="334.6,621.7 334.6,687.6 345.9,687.6 345.9,621.7 345.2,621.7 334.6,621.7 	"/>
	<path class="st0" d="M237.5,654c-0.1,0-8.8-4.3-8.8-4.3l-7.5-3.7c-5.5-2.9-8.3-6.1-8.3-9.4c0-2.8,1.2-4.9,3.8-6.3
		c2-1.1,4.8-1.7,8.4-1.6c5.7,0.1,11.6,1.9,14.7,4.3l1.2,0.9v-11.7l-0.5-0.1c-4.6-1.5-9.6-2.2-14.8-2.2c-6.8,0-12.5,1.4-17.1,4
		c-5.4,3.1-8.2,7.7-8.2,13.7c0,6.1,3,11.2,9.1,15.1c0.1,0,3.2,1.6,3.2,1.6l13.1,6.4c5.5,2.9,8.3,6.3,8.3,10.1c0,2.8-1.5,5.2-4.5,7
		c-2.7,1.6-5.7,2.4-8.7,2.4c-7.1,0-13.7-1.8-19.7-5.3l-1.3-0.7l-0.2,10.7l2.3,0.9c5.3,2,11.3,3,17.7,3c8.1,0,15-2.1,19.9-6
		c4.7-3.8,7-8.8,7-14.9C246.6,662.5,243.5,657.8,237.5,654L237.5,654z"/>
	<path class="st0" d="M263,621.7v0.7l-0.1,7.9c0,0,17,0,18.3,0c0,1.4,0,57.2,0,57.2h11.4c0,0,0-55.8,0-57.2c1.3,0,18.7,0,18.7,0
		v-8.7L263,621.7L263,621.7z"/>
	<polygon class="st0" points="440.1,621.7 440.1,687.6 451.4,687.6 451.4,621.7 450.7,621.7 440.1,621.7 	"/>
	<path class="st0" d="M368.5,621.7v0.7l0,7.9c0,0,17,0,18.3,0c0,1.4,0,57.2,0,57.2h11.4c0,0,0-55.8,0-57.2c1.3,0,18.7,0,18.7,0v-8.7
		L368.5,621.7L368.5,621.7z"/>
	<g>
		<path class="st0" d="M173.4,621.5h-7.9l0.1,40.5c0,12-2.8,18.6-17.6,18.6h-1.7c-9.9,0-14.9-6.2-14.9-18.6c0,0,0.1-40.5,0.1-40.5
			H120L120,662c0,4.9,0.2,8.3,0.6,10.3c0.7,3.7,2.2,6.9,4.6,9.4c4.3,4.7,10.4,7.1,18.3,7.1h7.3c7.8,0,14-2.4,18.2-7.1
			c2.3-2.6,3.9-5.7,4.6-9.4c0.4-2,0.6-5.4,0.6-10.3l0-40.5H173.4L173.4,621.5z"/>
	</g>
	<path class="st0" d="M89.8,621.4H78.6l0,46.9c0,4-0.3,6.4-0.8,7.8c-1.1,2.6-3.3,4.5-7.7,4.7c-3,0.1-8-1.6-8-1.6l0,8.7
		c4.9,1.8,9,1.8,10.9,1.8c5.7-0.1,11.1-2.5,14.4-7.8c1.3-2.1,2.4-6.1,2.4-12.7L89.8,621.4z"/>
</g>
</svg>
